<svg id="Layer_1" data-name="Layer 1" xmlns="http://www.w3.org/2000/svg" xmlns:xlink="http://www.w3.org/1999/xlink" viewBox="0 0 500 186.85"><defs><style>.cls-1{fill:none;}.cls-2{clip-path:url(#clip-path);}.cls-3{fill:#525252;}</style><clipPath id="clip-path"><rect class="cls-1" width="186.03" height="186.85"/></clipPath></defs><g class="cls-2"><path class="cls-3" d="M101.06.06C76,1.47,50.94,9.92,24.34,26,19.78,28.72,12.6,33.41,10,35.38A25.44,25.44,0,0,0,.1,53.25a36.28,36.28,0,0,0,.25,7.68A27.58,27.58,0,0,0,3.5,69.42c.42.71,4.68,6.77,9.45,13.45,7.54,10.57,8.86,12.36,10,13.58A24.79,24.79,0,0,0,37.77,104a32.2,32.2,0,0,0,7.6,0,26.13,26.13,0,0,0,13.54-6.34,36.73,36.73,0,0,0,5.38-6.21c20.22-27.08,45.35-45.87,72.3-54a112.77,112.77,0,0,1,24.19-4.54c3-.25,3.38-.33,4.68-1A10.53,10.53,0,0,0,169,28.23a7,7,0,0,0,.9-2.77,7.34,7.34,0,0,0-2.17-6.16c-2.38-2.42-9.44-6.83-15.4-9.62A104.21,104.21,0,0,0,113.63.1c-1.9-.11-10.79-.14-12.57,0Zm10.47,66.13A134.06,134.06,0,0,0,98.77,76c-3.68,3.27-9,8.5-12.3,12.08L85.2,89.49l26.29,42.71c14.47,23.5,26.69,43.24,27.17,43.88a36.79,36.79,0,0,0,4.94,5.12,28.49,28.49,0,0,0,8.56,4.65c2.92,1,3.3,1,7.44,1,4,0,5-.12,7.69-.88a26.59,26.59,0,0,0,15.08-11.73,27,27,0,0,0,3-19.68A27.71,27.71,0,0,0,181,145c-1-1.43-66.58-80.58-66.75-80.58s-1.29.77-2.73,1.74Z"/></g><path class="cls-3" d="M305.31,70.24l-5.92,4.68L282.47,121l-6.27,3.55L264.85,90.68,254,121l-6.27,3.55L230,75.05l-6.61-4.18,1.25-2.44H243v1.81l-5.09,3.9,14.62,41.64,10.8-29.85-3.7-11.09-6.47-4,1.18-2.44H274v1.81l-6,5,13,40.45,14.76-40.8-12.67-4,1.26-2.44h20.89v1.88Zm42.4,50.49-1.18,2.45H333.78v-7.54l-9,7.67a10.44,10.44,0,0,1-3.75.56h0a9.5,9.5,0,0,1-7.35-2.89,11.09,11.09,0,0,1-2.68-7.85h0v-17l-6.2-3.62V90.68l11.56-5.86h2.3V110c0,2.66.4,4.49,1.22,5.51s2.26,1.53,4.35,1.53h0a12,12,0,0,0,4.42-.87,19.51,19.51,0,0,0,5.18-3.45h0V96.11l-6.19-3.62V90.68l11.56-5.86h2.29v33.41l6.27,2.5Zm31.48-35.15a5.86,5.86,0,0,1,3.55,1.19,8.22,8.22,0,0,1,2.57,3.28h0l-4.25,5.3h-2.29a3.94,3.94,0,0,0-1-2.23,2.75,2.75,0,0,0-2-.7h0a7.94,7.94,0,0,0-3.41.83,14.66,14.66,0,0,0-4,3.35h0v21.21l9.53,3-1.18,2.44H354.47v-1.81l6.2-4.81V96.11l-6.2-3.55V90.74l11.34-5.86,2.09,8.79,7.39-7.59a11.55,11.55,0,0,1,4-.57h0l-.07.07Zm23.18,32.71,6.27,2.51-1.25,2.44H388.52v-1.81l6.19-4.81V72.75l-6.19-4.39V66.55l11.56-4.27h2.29v56Zm29.74,2.44-1.19,2.45H419.64L406.2,104.83,419.36,93.6l-6.26-4.95,1.18-2.44h15.94V88l-16.5,14L426,118.43l6.07,2.3Zm23.88.07-1.25,2.44H435.87v-1.81l6.19-4.81V72.75l-6.19-4.39V66.55l11.56-4.27h2.29v56L456,120.8Zm28.34-35.29a14,14,0,0,1,8.08,2.41A16.53,16.53,0,0,1,498,94.44a20.23,20.23,0,0,1,2,9.07h0a17.64,17.64,0,0,1-3.2,10.08,24.41,24.41,0,0,1-8.05,7.49,18.7,18.7,0,0,1-9.36,2.79h0a14.31,14.31,0,0,1-8.05-2.37,16,16,0,0,1-5.6-6.48,20.29,20.29,0,0,1-2-9.07h0a17.77,17.77,0,0,1,3.2-10.11,24.32,24.32,0,0,1,8-7.54,18.79,18.79,0,0,1,9.37-2.79Zm-4,5.45Q472,91,472,102.6h0a20.46,20.46,0,0,0,2.93,11.3,9.49,9.49,0,0,0,8.49,4.53h0q8.22,0,8.22-11.64h0a20.35,20.35,0,0,0-2.93-11.3A9.41,9.41,0,0,0,480.29,91Z"/></svg>