<?xml version="1.0" encoding="UTF-8"?><svg id="a" xmlns="http://www.w3.org/2000/svg" xmlns:xlink="http://www.w3.org/1999/xlink" viewBox="0 0 144.36 145"><defs><style>.c{fill:none;}.d{fill:#e0e1dd;}.e{clip-path:url(#b);}</style><clipPath id="b"><rect class="c" y="0" width="144.36" height="145"/></clipPath></defs><g class="e"><path class="d" d="M78.42,.05C58.97,1.14,39.53,7.7,18.88,20.15c-3.53,2.13-9.1,5.77-11.15,7.3C3.45,30.64,.75,35.53,.08,41.32c-.16,1.47-.07,4.59,.19,5.96,.42,2.27,1.35,4.74,2.44,6.59,.33,.55,3.63,5.25,7.33,10.44,5.85,8.2,6.87,9.59,7.79,10.54,3.12,3.26,6.94,5.21,11.47,5.87,1.57,.23,4.42,.23,5.9,0,3.95-.6,7.4-2.23,10.51-4.93,1.24-1.08,2.26-2.27,4.18-4.82,15.69-21.01,35.19-35.6,56.1-41.93,6.19-1.87,12.01-2.96,18.77-3.52,2.31-.19,2.63-.26,3.64-.79,.9-.47,2.23-1.85,2.73-2.82,.47-.93,.58-1.24,.7-2.15,.24-1.71-.38-3.45-1.68-4.78-1.85-1.88-7.32-5.3-11.95-7.47C108.87,3.15,99.05,.72,88.17,.08c-1.47-.09-8.37-.11-9.75-.03h0Zm8.12,51.32c-3.19,2.16-7.12,5.18-9.9,7.64-2.86,2.54-7.01,6.59-9.55,9.37l-.98,1.07,20.4,33.14c11.23,18.24,20.71,33.55,21.08,34.05,.83,1.12,2.74,3.1,3.83,3.97,1.96,1.56,4.36,2.86,6.64,3.6,2.27,.74,2.56,.78,5.77,.78s3.88-.1,5.97-.68c4.72-1.34,9.01-4.67,11.7-9.1,2.64-4.34,3.53-10.24,2.3-15.28-.64-2.65-1.82-5.25-3.35-7.39-.8-1.11-51.67-62.53-51.8-62.53-.05,0-1,.6-2.12,1.35h.01Z"/></g></svg>